# This file uses centimeters as units for non-parametric coordinates.

mtllib GLASS.mtl
g default
v -4.541058 -0.478957 -5.265194
v -3.790092 -0.516716 -5.590504
v 2.404436 -0.726453 9.637638
v 3.828395 -0.798053 9.020799
v 2.433786 -0.263463 9.631887
v 3.857745 -0.335063 9.015051
v -4.511707 -0.015966 -5.270939
v -3.760741 -0.053726 -5.596249
v -1.207522 -0.602680 1.061649
v -1.178172 -0.139689 1.055904
v -1.395943 -0.601923 -0.369755
v -2.260715 -0.583170 -4.413624
v -2.231365 -0.120179 -4.419369
v -1.366593 -0.138933 -0.375505
v -3.213580 -0.535259 -4.000858
v -3.184227 -0.072269 -4.006609
v -1.085455 1.585215 2.921576
v -2.385870 0.992429 6.055090
v 2.944729 1.730622 1.608082
v -2.385870 0.075835 5.829609
v -1.085455 0.649596 2.796667
v 2.944729 0.790335 1.525328
v 4.541056 1.730622 1.608082
v 4.541055 0.790335 1.525328
v 4.541057 -1.288434 9.974974
v 4.541058 -0.417079 10.337914
v -2.385870 -0.680860 8.383782
v -0.654132 -1.288434 9.974974
v -2.385870 0.210642 8.693960
v -0.654132 -0.417079 10.337914
v -1.085455 1.585215 -2.921574
v -2.385870 0.992429 -6.055086
v 2.944729 1.730622 -1.608082
v -2.385870 0.075835 -5.829607
v -1.085455 0.649595 -2.796663
v 2.944729 0.790335 -1.525324
v 4.541056 1.730622 -1.608082
v 4.541055 0.790335 -1.525324
v 4.541057 -1.288434 -9.974973
v 4.541058 -0.417079 -10.337914
v -2.385870 -0.680860 -8.383782
v -0.654132 -1.288434 -9.974973
v -2.385870 0.210642 -8.693967
v -0.654132 -0.417079 -10.337914
v -4.224205 -1.243227 5.271963
v -3.465392 -1.267553 5.579878
v 2.398668 -0.263506 -9.747125
v 3.837510 -0.309632 -9.163278
v 2.403742 -0.726576 -9.775338
v 3.842586 -0.772701 -9.191487
v -4.219131 -1.706295 5.243755
v -3.460316 -1.730622 5.551670
v -1.027278 -0.828306 -1.112719
v -1.022203 -1.291376 -1.140934
v -1.184277 -0.923844 0.319288
v -1.960614 -1.193379 4.372150
v -1.955540 -1.656448 4.343945
v -1.179204 -1.386913 0.291080
v -2.923437 -1.162512 3.981464
v -2.918363 -1.625581 3.953253
vt 0.487733 0.845095
vt 0.964386 0.966704
vt 0.963756 0.827221
vt 0.964577 0.853452
vt 0.964598 0.941217
vt 0.487946 0.866696
vt 0.061892 0.882797
vt 0.079563 0.921136
vt 0.056454 0.931889
vt 0.060612 0.859360
vt 0.398087 0.841039
vt 0.170791 0.809069
vt 0.176194 0.924184
vt 0.399743 0.876974
vt 0.164206 0.855843
vt 0.165038 0.877953
vt 0.175172 0.949681
vt 0.958695 0.739415
vt 0.075073 0.820004
vt 0.076161 0.945976
vt 0.038353 0.892542
vt 0.965669 0.192839
vt 1.001763 0.199859
vt 0.890293 0.382561
vt 0.881169 0.351257
vt 0.557454 0.283750
vt 0.557295 0.243953
vt 0.832025 0.047833
vt 0.843243 0.012888
vt 0.962028 0.080637
vt 0.933671 0.101716
vt 0.704831 0.049671
vt 0.693455 0.015236
vt 0.576014 0.182464
vt 0.560283 0.145871
vt 0.037131 0.192922
vt 0.121177 0.352121
vt 0.112018 0.383421
vt 0.001011 0.199805
vt 0.171206 0.048138
vt 0.069415 0.101722
vt 0.041164 0.080510
vt 0.160285 0.013100
vt 0.310582 0.015971
vt 0.298794 0.050226
vt 0.441721 0.147768
vt 0.425809 0.182745
vt 0.446048 0.246759
vt 0.446462 0.286612
vt 0.469196 0.563092
vt 0.945183 0.488484
vt 0.945177 0.576313
vt 0.944489 0.602553
vt 0.939440 0.690322
vt 0.468068 0.584677
vt 0.018858 0.538672
vt 0.036616 0.499106
vt 0.059537 0.510348
vt 0.042141 0.548914
vt 0.380077 0.553277
vt 0.156534 0.506281
vt 0.155612 0.480783
vt 0.944960 0.463017
vt 0.151829 0.621373
vt 0.379311 0.589243
vt 0.145793 0.552657
vt 0.144809 0.574741
vt 0.056405 0.485316
vt 0.056476 0.611582
vt 0.041725 0.572404
vn -0.047547 -0.998853 0.005590
vn -0.047732 -0.998844 0.005685
vn -0.047756 -0.998843 0.005698
vn 0.047756 0.998843 -0.005698
vn 0.047732 0.998844 -0.005685
vn 0.047547 0.998853 -0.005590
vn -0.396875 0.013772 -0.917769
vn -0.396875 0.013772 -0.917769
vn -0.396875 0.013772 -0.917769
vn -0.396875 0.013772 -0.917769
vn -0.932740 0.063535 0.354907
vn -0.932675 0.063533 0.355079
vn -0.919433 0.063104 0.388150
vn -0.919433 0.063104 0.388150
vn -0.047542 -0.998854 0.005585
vn -0.047711 -0.998846 0.005609
vn 0.884397 -0.061806 -0.462625
vn 0.884644 -0.061816 -0.462151
vn 0.908640 -0.062725 -0.412842
vn 0.908640 -0.062725 -0.412842
vn 0.047711 0.998845 -0.005609
vn 0.047542 0.998854 -0.005585
vn -0.927457 0.063372 0.368520
vn -0.927570 0.063376 0.368236
vn -0.047784 -0.998842 0.005630
vn 0.047784 0.998842 -0.005630
vn -0.839326 0.059919 0.540316
vn -0.838944 0.059902 0.540912
vn -0.047766 -0.998843 0.005672
vn -0.047766 -0.998843 0.005672
vn 0.607818 -0.048366 -0.792602
vn 0.607818 -0.048366 -0.792602
vn 0.047766 0.998843 -0.005672
vn 0.047766 0.998843 -0.005672
vn -0.687550 0.052579 0.724231
vn -0.687550 0.052579 0.724231
vn 0.000000 -0.384504 0.923124
vn 0.000000 -0.384504 0.923124
vn 0.000000 -0.384504 0.923124
vn 0.000000 -0.384504 0.923124
vn 1.000000 -0.000001 -0.000000
vn 1.000000 -0.000001 -0.000000
vn 1.000000 -0.000001 -0.000000
vn 1.000000 -0.000001 -0.000000
vn -0.976197 0.040314 -0.213108
vn -0.976107 0.040389 -0.213503
vn -1.000000 0.000000 0.000000
vn -1.000000 0.000000 0.000000
vn -0.923812 0.071162 -0.376175
vn -0.923812 0.071162 -0.376174
vn -0.307057 0.104712 -0.945913
vn -0.307057 0.104712 -0.945913
vn -0.307057 0.104712 -0.945913
vn -0.307057 0.104712 -0.945913
vn 0.037099 0.981157 0.189616
vn 0.040669 0.969617 0.241224
vn 0.045542 0.968066 0.246525
vn -0.707054 -0.252254 0.660638
vn -0.707054 -0.252254 0.660638
vn -0.707054 -0.252254 0.660638
vn -0.707054 -0.252254 0.660638
vn 0.000000 -0.384504 -0.923123
vn 0.000000 -0.384504 -0.923123
vn 0.000000 -0.384504 -0.923123
vn 0.000000 -0.384504 -0.923123
vn -0.976197 0.040314 0.213108
vn -1.000000 0.000000 0.000000
vn -1.000000 0.000000 0.000000
vn -0.976107 0.040389 0.213503
vn -0.923812 0.071162 0.376174
vn -0.923812 0.071162 0.376175
vn -0.307057 0.104715 0.945913
vn -0.307057 0.104715 0.945913
vn -0.307057 0.104715 0.945913
vn -0.307057 0.104715 0.945913
vn 0.017032 0.955890 -0.293230
vn 0.045542 0.968066 -0.246525
vn 0.000000 0.934213 -0.356717
vn 1.000000 -0.000001 0.000000
vn 1.000000 -0.000001 0.000000
vn 1.000000 -0.000001 0.000000
vn 1.000000 -0.000001 0.000000
vn -0.707054 -0.252257 -0.660637
vn -0.707054 -0.252257 -0.660637
vn -0.707054 -0.252257 -0.660637
vn -0.707054 -0.252257 -0.660637
vn -1.000000 0.000000 0.000000
vn -1.000000 0.000000 0.000000
vn -1.000000 0.000000 0.000000
vn -1.000000 0.000000 0.000000
vn 0.037099 0.981157 -0.189616
vn 0.013474 0.989927 -0.140936
vn 0.013474 0.989927 0.140936
vn 1.000000 -0.000000 0.000000
vn 1.000000 -0.000000 0.000000
vn 1.000000 -0.000000 0.000000
vn 1.000000 -0.000000 0.000000
vn 0.040669 0.969617 -0.241224
vn 0.017615 0.982723 -0.184244
vn 0.017615 0.982723 0.184244
vn 0.017031 0.955890 0.293231
vn 0.000000 0.934213 0.356716
vn 0.004951 0.997724 0.067248
vn 0.004764 0.997731 0.067157
vn 0.004739 0.997732 0.067145
vn -0.004738 -0.997732 -0.067144
vn -0.004764 -0.997731 -0.067157
vn -0.004950 -0.997724 -0.067247
vn -0.376982 -0.060432 0.924247
vn -0.376982 -0.060432 0.924247
vn -0.376982 -0.060432 0.924247
vn -0.376982 -0.060432 0.924247
vn -0.942295 0.010064 -0.334634
vn -0.942233 0.010075 -0.334807
vn -0.929710 0.012240 -0.368088
vn -0.929710 0.012240 -0.368088
vn 0.004956 0.997724 0.067253
vn 0.004786 0.997726 0.067232
vn 0.896284 -0.017172 0.443149
vn 0.896520 -0.017140 0.442672
vn 0.919452 -0.013861 0.392958
vn 0.919452 -0.013861 0.392958
vn -0.004785 -0.997726 -0.067232
vn -0.004956 -0.997724 -0.067252
vn -0.937308 0.010950 -0.348330
vn -0.937414 0.010932 -0.348045
vn 0.004712 0.997728 0.067212
vn -0.004712 -0.997728 -0.067212
vn -0.852878 0.022432 -0.521628
vn -0.852507 0.022473 -0.522232
vn 0.004729 0.997730 0.067170
vn 0.004729 0.997730 0.067170
vn 0.626628 -0.040539 0.778263
vn 0.626628 -0.040539 0.778263
vn -0.004730 -0.997730 -0.067170
vn -0.004730 -0.997730 -0.067170
vn -0.704964 0.035427 -0.708357
vn -0.704964 0.035427 -0.708357
s 1
g gLASS
usemtl initialShadingGroup
f 9/1/1 4/18/2 3/3/3
s 2
f 5/4/4 6/5/5 10/6/6
s off
f 7/7/7 8/8/8 2/9/9 1/21/10
s 3
f 10/6/11 9/1/12 3/3/13 5/4/14
s 1
f 11/11/15 12/12/16 4/18/2 9/1/1
s 4
f 12/17/17 13/13/18 6/5/19 4/2/20
s 2
f 10/6/6 6/5/5 13/13/21 14/14/22
s 3
f 14/14/23 11/11/24 9/1/12 10/6/11
s 1
f 15/15/25 12/12/16 11/11/15
s 2
f 14/14/22 13/13/21 16/16/26
s 3
f 16/16/27 15/15/28 11/11/24 14/14/23
s 1
f 1/10/29 2/19/30 12/12/16 15/15/25
s 4
f 2/20/31 8/8/32 13/13/18 12/17/17
s 2
f 16/16/26 13/13/21 8/8/33 7/7/34
s 3
f 7/7/35 1/10/36 15/15/28 16/16/27
s off
f 30/22/37 28/23/38 25/24/39 26/25/40
f 25/24/41 24/26/42 23/27/43 26/25/44
s 5
f 18/28/45 20/29/46 27/30/47 29/31/48
f 18/28/45 17/32/49 21/33/50 20/29/46
s off
f 17/32/51 19/34/52 22/35/53 21/33/54
s 6
f 23/27/55 18/28/56 26/25/57
s off
f 27/30/58 28/23/59 30/22/60 29/31/61
f 44/36/62 40/37/63 39/38/64 42/39/65
s 7
f 32/40/66 43/41/67 41/42/68 34/43/69
f 32/40/66 34/43/69 35/44/70 31/45/71
s off
f 31/45/72 35/44/73 36/46/74 33/47/75
s 6
f 43/41/76 40/37/77 44/36/78
s off
f 40/37/79 37/48/80 38/49/81 39/38/82
f 41/42/83 43/41/84 44/36/85 42/39/86
f 33/47/87 36/46/88 22/35/89 19/34/90
s 6
f 37/48/91 33/47/92 19/34/93 23/27/55
s off
f 24/26/94 38/49/95 37/48/96 23/27/97
s 6
f 32/40/98 37/48/91 40/37/77
f 32/40/98 40/37/77 43/41/76
f 31/45/99 33/47/92 37/48/91 32/40/98
f 17/32/100 18/28/56 23/27/55 19/34/93
f 26/25/57 29/31/101 30/22/102
f 26/25/57 18/28/56 29/31/101
s 10
f 53/50/103 48/51/104 47/52/105
s 11
f 49/53/106 50/54/107 54/55/108
s off
f 51/56/109 52/57/110 46/58/111 45/59/112
s 12
f 54/55/113 53/50/114 47/52/115 49/53/116
s 10
f 55/60/117 56/61/118 48/51/104 53/50/103
s 13
f 56/61/119 57/62/120 50/63/121 48/51/122
s 11
f 54/55/108 50/54/107 57/64/123 58/65/124
s 12
f 58/65/125 55/60/126 53/50/114 54/55/113
s 10
f 59/66/127 56/61/118 55/60/117
s 11
f 58/65/124 57/64/123 60/67/128
s 12
f 60/67/129 59/66/130 55/60/126 58/65/125
s 10
f 45/59/131 46/58/132 56/61/118 59/66/127
s 13
f 46/58/133 52/68/134 57/62/120 56/61/119
s 11
f 60/67/128 57/64/123 52/69/135 51/70/136
s 12
f 51/70/137 45/59/138 59/66/130 60/67/129
