# This file uses centimeters as units for non-parametric coordinates.

mtllib Toilet Paper.mtl
g default
v 2.760010 0.000000 0.000000
v 1.951622 0.000000 -1.951622
v 0.000000 0.000000 -2.760010
v -1.951622 0.000000 -1.951622
v -2.760010 0.000000 0.000000
v -1.951622 0.000000 1.951622
v 0.000000 0.000000 2.760010
v 1.951622 0.000000 1.951622
v 2.760010 11.503443 0.000000
v 1.951622 11.503443 -1.951622
v 0.000000 11.503443 -2.760010
v -1.951622 11.503443 -1.951622
v -2.760010 11.503443 0.000000
v -1.951622 11.503443 1.951622
v 0.000000 11.503443 2.760010
v 1.951622 11.503443 1.951622
v 7.050768 11.503443 0.000000
v 4.985646 11.503443 -4.985646
v 0.000000 11.503443 -7.050768
v -4.985645 11.503443 -4.985645
v -7.050767 11.503443 0.000000
v -4.985645 11.503443 4.985645
v 0.000000 11.503443 7.050767
v 4.985645 11.503443 4.985645
v 7.050768 0.000000 0.000000
v 4.985646 0.000000 -4.985646
v 0.000000 0.000000 -7.050768
v -4.985645 0.000000 -4.985645
v -7.050767 0.000000 0.000000
v -4.985645 0.000000 4.985645
v 0.000000 0.000000 7.050767
v 4.985645 0.000000 4.985645
vt 0.449821 0.541451
vt 0.518568 0.541434
vt 0.587315 0.541416
vt 0.656063 0.541399
vt 0.724810 0.541382
vt 0.793558 0.541364
vt 0.862305 0.541347
vt 0.931053 0.541330
vt 0.999800 0.541313
vt 0.449754 0.275001
vt 0.766055 0.735036
vt 0.766054 0.666289
vt 0.814665 0.617677
vt 0.883412 0.617676
vt 0.932025 0.666287
vt 0.932025 0.735035
vt 0.883414 0.783647
vt 0.814667 0.783648
vt 0.786543 0.851545
vt 0.125033 0.266573
vt 0.250028 0.266555
vt 0.375023 0.266537
vt 0.500019 0.266520
vt 0.625014 0.266502
vt 0.750009 0.266485
vt 0.875005 0.266467
vt 1.000000 0.266450
vt 0.000000 0.000140
vt 0.352675 0.274953
vt 0.227680 0.274983
vt 0.139316 0.363389
vt 0.139345 0.488384
vt 0.227751 0.576748
vt 0.352746 0.576719
vt 0.441111 0.488313
vt 0.441081 0.363318
vt 0.373191 0.391458
vt 0.324567 0.342857
vt 0.255820 0.342873
vt 0.207220 0.391497
vt 0.207236 0.460244
vt 0.255859 0.508844
vt 0.324606 0.508828
vt 0.373207 0.460205
vt 0.911539 0.851544
vt 0.000037 0.266590
vt 0.999923 0.763158
vt 0.999922 0.638163
vt 0.911536 0.549779
vt 0.786540 0.549780
vt 0.698156 0.638166
vt 0.698158 0.763161
vt 0.930986 0.274880
vt 0.999733 0.274863
vt 0.862238 0.274897
vt 0.793491 0.274915
vt 0.724743 0.274932
vt 0.655996 0.274949
vt 0.587248 0.274966
vt 0.518501 0.274984
vt 0.874967 0.000018
vt 0.999963 0.000000
vt 0.749972 0.000035
vt 0.624977 0.000053
vt 0.499981 0.000070
vt 0.374986 0.000088
vt 0.249991 0.000105
vt 0.124995 0.000123
vn -0.707107 0.000000 0.707107
vn -1.000000 0.000000 0.000000
vn -1.000000 0.000000 0.000000
vn -0.707107 0.000000 0.707107
vn 0.000000 0.000000 1.000000
vn 0.000000 0.000000 1.000000
vn 0.707107 0.000000 0.707107
vn 0.707107 0.000000 0.707107
vn 1.000000 0.000000 0.000000
vn 1.000000 0.000000 0.000000
vn 0.707107 0.000000 -0.707107
vn 0.707107 0.000000 -0.707107
vn 0.000000 0.000000 -1.000000
vn 0.000000 0.000000 -1.000000
vn -0.707107 0.000000 -0.707107
vn -0.707107 0.000000 -0.707107
vn 0.000000 1.000000 0.000000
vn 0.000000 1.000000 -0.000000
vn 0.000000 1.000000 -0.000000
vn 0.000000 1.000000 0.000000
vn 0.000000 1.000000 0.000000
vn 0.000000 1.000000 0.000000
vn 0.000000 1.000000 -0.000000
vn 0.000000 1.000000 -0.000000
vn 0.000000 1.000000 0.000000
vn 0.000000 1.000000 0.000000
vn 0.000000 1.000000 0.000000
vn 0.000000 1.000000 0.000000
vn 0.000000 1.000000 0.000000
vn 0.000000 1.000000 0.000000
vn 0.000000 1.000000 -0.000000
vn 0.000000 1.000000 -0.000000
vn 0.707107 0.000000 -0.707107
vn 1.000000 0.000000 0.000000
vn 1.000000 0.000000 0.000000
vn 0.707107 0.000000 -0.707107
vn -0.000000 0.000000 -1.000000
vn -0.000000 0.000000 -1.000000
vn -0.707107 0.000000 -0.707107
vn -0.707107 0.000000 -0.707107
vn -1.000000 0.000000 0.000000
vn -1.000000 0.000000 0.000000
vn -0.707107 0.000000 0.707107
vn -0.707107 0.000000 0.707107
vn 0.000000 0.000000 1.000000
vn 0.000000 0.000000 1.000000
vn 0.707107 0.000000 0.707107
vn 0.707107 0.000000 0.707107
vn -0.000000 -1.000000 0.000000
vn -0.000000 -1.000000 0.000000
vn -0.000000 -1.000000 -0.000000
vn -0.000000 -1.000000 0.000000
vn 0.000000 -1.000000 0.000000
vn 0.000000 -1.000000 0.000000
vn 0.000000 -1.000000 0.000000
vn 0.000000 -1.000000 0.000000
vn 0.000000 -1.000000 -0.000000
vn 0.000000 -1.000000 -0.000000
vn 0.000000 -1.000000 -0.000000
vn 0.000000 -1.000000 -0.000000
vn 0.000000 -1.000000 -0.000000
vn 0.000000 -1.000000 -0.000000
vn -0.000000 -1.000000 -0.000000
vn -0.000000 -1.000000 -0.000000
s 1
g pPipe1
usemtl blinn2SG
f 2/2/1 1/1/2 9/10/3 10/60/4
f 3/3/5 2/2/1 10/60/4 11/59/6
f 4/4/7 3/3/5 11/59/6 12/58/8
f 5/5/9 4/4/7 12/58/8 13/57/10
f 6/6/11 5/5/9 13/57/10 14/56/12
f 7/7/13 6/6/11 14/56/12 15/55/14
f 8/8/15 7/7/13 15/55/14 16/53/16
f 1/9/2 8/8/15 16/53/16 9/54/3
s 2
f 10/11/17 9/18/18 17/19/19 18/52/20
f 11/12/21 10/11/17 18/52/20 19/51/22
f 12/13/23 11/12/21 19/51/22 20/50/24
f 13/14/25 12/13/23 20/50/24 21/49/26
f 14/15/27 13/14/25 21/49/26 22/48/28
f 15/16/29 14/15/27 22/48/28 23/47/30
f 16/17/31 15/16/29 23/47/30 24/45/32
f 9/18/18 16/17/31 24/45/32 17/19/19
s 3
f 18/20/33 17/46/34 25/28/35 26/68/36
f 19/21/37 18/20/33 26/68/36 27/67/38
f 20/22/39 19/21/37 27/67/38 28/66/40
f 21/23/41 20/22/39 28/66/40 29/65/42
f 22/24/43 21/23/41 29/65/42 30/64/44
f 23/25/45 22/24/43 30/64/44 31/63/46
f 24/26/47 23/25/45 31/63/46 32/61/48
f 17/27/34 24/26/47 32/61/48 25/62/35
s 4
f 26/29/49 25/36/50 1/37/51 2/38/52
f 27/30/53 26/29/49 2/38/52 3/39/54
f 28/31/55 27/30/53 3/39/54 4/40/56
f 29/32/57 28/31/55 4/40/56 5/41/58
f 30/33/59 29/32/57 5/41/58 6/42/60
f 31/34/61 30/33/59 6/42/60 7/43/62
f 32/35/63 31/34/61 7/43/62 8/44/64
f 25/36/50 32/35/63 8/44/64 1/37/51
